<mxfile host="app.diagrams.net" agent="Mozilla/5.0 (Windows NT 10.0; Win64; x64) AppleWebKit/537.36 (KHTML, like Gecko) Chrome/134.0.0.0 Safari/537.36 Edg/134.0.0.0" version="26.1.1">
  <diagram name="Page-1" id="ge7D1yINWe-RWGV0IXtk">
    <mxGraphModel dx="872" dy="481" grid="1" gridSize="10" guides="1" tooltips="1" connect="1" arrows="1" fold="1" page="1" pageScale="1" pageWidth="827" pageHeight="1169" math="0" shadow="0">
      <root>
        <mxCell id="0" />
        <mxCell id="1" parent="0" />
        <mxCell id="9J8Sa_pjValASLdkcOcv-4" value="" style="image;html=1;image=img/lib/clip_art/computers/Laptop_128x128.png" vertex="1" parent="1">
          <mxGeometry x="190" y="50" width="80" height="80" as="geometry" />
        </mxCell>
        <mxCell id="9J8Sa_pjValASLdkcOcv-7" value="" style="image;html=1;image=img/lib/clip_art/computers/MacBook_128x128.png" vertex="1" parent="1">
          <mxGeometry x="500" y="50" width="80" height="80" as="geometry" />
        </mxCell>
        <mxCell id="9J8Sa_pjValASLdkcOcv-9" value="&lt;u&gt;tenant1.kfokam48.com&lt;/u&gt;" style="text;html=1;align=center;verticalAlign=middle;whiteSpace=wrap;rounded=0;" vertex="1" parent="1">
          <mxGeometry x="153" y="10" width="130" height="30" as="geometry" />
        </mxCell>
        <mxCell id="9J8Sa_pjValASLdkcOcv-11" value="&lt;u&gt;tenant2&lt;span style=&quot;background-color: transparent; color: light-dark(rgb(0, 0, 0), rgb(255, 255, 255));&quot;&gt;.kfokam48.com&lt;/span&gt;&lt;/u&gt;" style="text;html=1;align=center;verticalAlign=middle;whiteSpace=wrap;rounded=0;" vertex="1" parent="1">
          <mxGeometry x="460" y="10" width="130" height="30" as="geometry" />
        </mxCell>
        <mxCell id="9J8Sa_pjValASLdkcOcv-15" value="Server" style="verticalAlign=top;align=left;spacingTop=8;spacingLeft=2;spacingRight=12;shape=cube;size=10;direction=south;fontStyle=4;html=1;whiteSpace=wrap;" vertex="1" parent="1">
          <mxGeometry x="262" y="255" width="240" height="290" as="geometry" />
        </mxCell>
        <mxCell id="9J8Sa_pjValASLdkcOcv-22" value="" style="shape=flexArrow;endArrow=classic;startArrow=classic;html=1;rounded=0;exitX=0.5;exitY=1;exitDx=0;exitDy=0;entryX=0;entryY=0;entryDx=5;entryDy=235;entryPerimeter=0;" edge="1" parent="1" source="9J8Sa_pjValASLdkcOcv-4" target="9J8Sa_pjValASLdkcOcv-15">
          <mxGeometry width="100" height="100" relative="1" as="geometry">
            <mxPoint x="260" y="190" as="sourcePoint" />
            <mxPoint x="400" y="230" as="targetPoint" />
          </mxGeometry>
        </mxCell>
        <mxCell id="9J8Sa_pjValASLdkcOcv-23" value="" style="shape=flexArrow;endArrow=classic;startArrow=classic;html=1;rounded=0;entryX=0;entryY=0.025;entryDx=0;entryDy=0;entryPerimeter=0;" edge="1" parent="1" source="9J8Sa_pjValASLdkcOcv-7" target="9J8Sa_pjValASLdkcOcv-15">
          <mxGeometry width="100" height="100" relative="1" as="geometry">
            <mxPoint x="470" y="130" as="sourcePoint" />
            <mxPoint x="515" y="265" as="targetPoint" />
          </mxGeometry>
        </mxCell>
        <mxCell id="9J8Sa_pjValASLdkcOcv-25" value="Code" style="swimlane;whiteSpace=wrap;html=1;" vertex="1" parent="1">
          <mxGeometry x="570" y="360" width="200" height="150" as="geometry" />
        </mxCell>
      </root>
    </mxGraphModel>
  </diagram>
</mxfile>
